# xmcd CD database file
#
# Track frame offsets:
#	150
#	55303
#	82863
#	108065
#	138508
#	162083
#	212558
#	257598
#	279490
#
# Disc length: 4287 seconds
#
# Revision: 6
# Processed by: cddbd v1.5.2PL0 Copyright (c) Steve Scherf et al.
# Submitted via: CDex 1.51
#
DISCID=7010bd09
DTITLE=Sonny Rollins - Vol. 061, Tenor Madness
DYEAR=1956
DGENRE=Jazz
TTITLE0=Tenor Madness
TTITLE1=My Reverie
TTITLE2=The Most Beautiful Girl In The World
TTITLE3=St. Thomas
TTITLE4=Strode Rode
TTITLE5=Blue Seven
TTITLE6=Moritat
TTITLE7=I've grown Accustomed To Her Face
TTITLE8=The House I Live In
EXTD=YEAR: 1956
EXTT0=
EXTT1=
EXTT2=
EXTT3=
EXTT4=
EXTT5=
EXTT6=
EXTT7=
EXTT8=
PLAYORDER=
